HIERARCHY
ROOT SpineBase
{
  OFFSET 0.000000 0.000000 0.000000
  CHANNELS 6 Xposition Yposition Zposition Zrotation Xrotation Yrotation
  JOINT SpineMid
  {
    OFFSET -0.000000 33.082334 0.000000
    CHANNELS 3 Zrotation Xrotation Yrotation
    JOINT SpineShoulder
    {
      OFFSET 0.351654 24.893780 -1.278815
      CHANNELS 3 Zrotation Xrotation Yrotation
      JOINT Neck
      {
        OFFSET -0.202725 8.363920 -0.889164
        CHANNELS 3 Zrotation Xrotation Yrotation
        JOINT Head
        {
          OFFSET -8.334186 10.335032 4.483813
          CHANNELS 3 Zrotation Xrotation Yrotation
          End Site
          {
            OFFSET 0 0 0
          }
        }
      }
      JOINT ShoulderLeft
      {
        OFFSET -10.047083 -11.928814 -13.690476
        CHANNELS 3 Zrotation Xrotation Yrotation
        JOINT ElbowLeft
        {
          OFFSET 4.419740 -24.893961 -6.181461
          CHANNELS 3 Zrotation Xrotation Yrotation
          JOINT WristLeft
          {
            OFFSET -0.486484 -20.291850 6.951368
            CHANNELS 3 Zrotation Xrotation Yrotation
            JOINT HandLeft
            {
              OFFSET 0.823142 -5.038467 2.776341
              CHANNELS 3 Zrotation Xrotation Yrotation
              JOINT HandTipLeft
              {
                OFFSET 1.719865 -11.139174 0.987616
                CHANNELS 3 Zrotation Xrotation Yrotation
                End Site
                {
                  OFFSET 0 0 0
                }
              }
              JOINT ThumbLeft
              {
                OFFSET -1.540925 1.137918 2.013353
                CHANNELS 3 Zrotation Xrotation Yrotation
                End Site
                {
                  OFFSET 0 0 0
                }
              }
            }
          }
        }
      }
      JOINT ShoulderRight
      {
        OFFSET 5.396775 -4.931012 -13.420018
        CHANNELS 3 Zrotation Xrotation Yrotation
        JOINT ElbowRight
        {
          OFFSET -1.471852 -26.057801 -6.407575
          CHANNELS 3 Zrotation Xrotation Yrotation
          JOINT WristRight
          {
            OFFSET -3.800088 -21.668425 0.472821
            CHANNELS 3 Zrotation Xrotation Yrotation
            JOINT HandRight
            {
              OFFSET -0.478229 -8.835039 2.995094
              CHANNELS 3 Zrotation Xrotation Yrotation
              JOINT HandTipRight
              {
                OFFSET -1.872565 -8.304704 0.883148
                CHANNELS 3 Zrotation Xrotation Yrotation
                End Site
                {
                  OFFSET 0 0 0
                }
              }
              JOINT ThumbRight
              {
                OFFSET 3.119004 3.616470 1.388471
                CHANNELS 3 Zrotation Xrotation Yrotation
                End Site
                {
                  OFFSET 0 0 0
                }
              }
            }
          }
        }
      }
    }
  }
  JOINT HipLeft
  {
    OFFSET -6.156608 -2.630688 0.707387
    CHANNELS 3 Zrotation Xrotation Yrotation
    JOINT KneeLeft
    {
      OFFSET 27.166728 -30.803733 10.227004
      CHANNELS 3 Zrotation Xrotation Yrotation
      JOINT AnkleLeft
      {
        OFFSET 8.436439 -34.989850 2.911903
        CHANNELS 3 Zrotation Xrotation Yrotation
        JOINT FootLeft
        {
          OFFSET -5.834603 -0.922368 -16.750893
          CHANNELS 3 Zrotation Xrotation Yrotation
          End Site
          {
            OFFSET 0 0 0
          }
        }
      }
    }
  }
  JOINT HipRight
  {
    OFFSET 6.442838 3.946642 -8.729998
    CHANNELS 3 Zrotation Xrotation Yrotation
    JOINT KneeRight
    {
      OFFSET 4.115494 -42.778028 3.207441
      CHANNELS 3 Zrotation Xrotation Yrotation
      JOINT AnkleRight
      {
        OFFSET 11.740358 -29.836285 0.295320
        CHANNELS 3 Zrotation Xrotation Yrotation
        JOINT FootRight
        {
          OFFSET -4.526403 -8.233987 -4.460027
          CHANNELS 3 Zrotation Xrotation Yrotation
          End Site
          {
            OFFSET 0 0 0
          }
        }
      }
    }
  }
}
MOTION
Frames: 14
Frame Time: 0.033333
-9.813551 78.939857 319.667599 0.000000 0.000000 36.834372 -0.000000 0.000000 -36.834372 -0.000000 0.000000 0.000000 -0.000000 0.000000 0.000000 0.000000 0.000000 0.000000 -0.000000 0.000000 0.000000 -0.000000 0.000000 0.000000 -0.000000 0.000000 0.000000 -0.000000 0.000000 0.000000 0.000000 0.000000 0.000000 0.000000 0.000000 0.000000 -0.000000 0.000000 0.000000 -0.000000 0.000000 0.000000 -0.000000 0.000000 0.000000 -0.000000 0.000000 0.000000 0.000000 0.000000 0.000000 0.000000 0.000000 0.000000 -0.000000 0.000000 -36.834372 -0.000000 0.000000 0.000000 -0.000000 0.000000 0.000000 0.000000 0.000000 0.000000 -0.000000 0.000000 -36.834372 -0.000000 0.000000 0.000000 -0.000000 0.000000 0.000000 0.000000 0.000000 0.000000
-6.474444 79.235535 320.241350 3.419083 -0.647395 35.579839 -0.200439 0.370382 -35.400443 -2.131931 0.442624 -0.061728 -0.907296 0.027856 -0.095581 0.000000 0.000000 0.000000 -0.907296 0.027856 -0.095581 -0.000000 0.000000 0.000000 3.036680 0.623174 1.756501 -6.102183 -2.642099 -2.478133 0.000000 0.000000 0.000000 0.000000 0.000000 0.000000 -0.907296 0.027856 -0.095581 -0.000000 0.000000 0.000000 0.732683 0.326680 0.228913 -0.263235 -1.144768 0.008114 0.000000 0.000000 0.000000 0.000000 0.000000 0.000000 -5.169547 5.754170 -35.774094 4.132168 -1.008341 0.502119 -0.347060 0.967122 0.160326 0.000000 0.000000 0.000000 -5.627600 5.779575 -35.537058 4.514021 -0.778426 0.293159 -0.655459 0.586973 0.035513 0.000000 0.000000 0.000000
-3.598610 79.384905 320.743946 6.289507 -1.197868 34.487872 -0.288190 0.612973 -34.127711 -3.902905 0.807029 -0.098634 -1.797223 0.076375 -0.188113 0.000000 0.000000 0.000000 -1.797223 0.076375 -0.188113 -0.000000 0.000000 0.000000 5.547860 0.802435 3.138119 -11.338553 -4.014199 -4.518370 0.000000 0.000000 0.000000 0.000000 0.000000 0.000000 -1.797223 0.076375 -0.188113 -0.000000 0.000000 0.000000 1.412931 0.364732 0.455564 -0.532912 -1.583461 -0.078574 0.000000 0.000000 0.000000 0.000000 0.000000 0.000000 -9.940043 10.477079 -34.477597 7.805003 -1.792344 1.066979 -0.582283 1.622106 0.249319 0.000000 0.000000 0.000000 -10.690535 10.586054 -33.912050 8.462915 -1.531674 0.596810 -1.220321 1.086278 0.074605 0.000000 0.000000 0.000000
-1.186048 79.387969 321.175385 8.595921 -1.648186 33.344344 -0.271128 0.742327 -32.818544 -5.287163 1.086409 -0.114573 -2.664901 0.145465 -0.276639 0.000000 0.000000 0.000000 -2.664901 0.145465 -0.276639 -0.000000 0.000000 0.000000 7.543727 0.486946 4.173239 -15.543840 -4.227292 -5.933967 0.000000 0.000000 0.000000 0.000000 0.000000 0.000000 -2.664901 0.145465 -0.276639 0.953875 -0.253119 0.067408 1.075210 0.341177 0.610054 -0.791892 -1.294735 -0.262603 0.000000 0.000000 0.000000 0.000000 0.000000 0.000000 -14.214043 14.089348 -32.925791 11.175431 -3.312858 1.446507 -0.940632 2.952312 0.497282 0.000000 0.000000 0.000000 -15.147141 14.410125 -31.967448 11.826900 -2.263993 0.896340 -1.695738 1.499148 0.114859 0.000000 0.000000 0.000000
0.763241 79.244725 321.535670 10.339910 -1.999293 31.976795 -0.161460 0.775278 -31.312291 -6.272559 1.276932 -0.113102 -3.505654 0.234807 -0.360268 0.000000 0.000000 0.000000 -3.505654 0.234807 -0.360268 -0.000000 0.000000 0.000000 9.033883 -0.363822 4.883007 -18.614809 -3.378576 -6.610271 0.000000 0.000000 0.000000 0.000000 0.000000 0.000000 -3.505654 0.234807 -0.360268 1.200414 -0.186505 0.060967 1.367627 -0.332665 0.844761 -1.021023 -0.266793 -0.543644 0.000000 0.000000 0.000000 0.000000 0.000000 0.000000 -17.908555 16.530004 -31.138175 13.752877 -3.892593 1.959208 -1.019147 3.287455 0.506858 0.000000 0.000000 0.000000 -18.974539 17.251119 -29.724566 14.606012 -2.984056 1.179583 -2.082813 1.826834 0.154303 0.000000 0.000000 0.000000
2.249257 78.955174 321.824799 11.533105 -2.254365 30.245790 0.030118 0.730485 -29.476956 -6.857532 1.377209 -0.096954 -4.315098 0.343863 -0.438201 0.000000 0.000000 0.000000 -4.315098 0.343863 -0.438201 -0.000000 0.000000 0.000000 10.019122 -1.785059 5.275129 -20.504875 -1.518414 -6.498431 0.000000 0.000000 0.000000 0.000000 0.000000 0.000000 -3.515314 0.088043 -0.624428 0.612551 0.205729 0.218355 1.605946 -1.421522 1.098501 -1.200244 1.501005 -0.919355 0.000000 0.000000 0.000000 0.000000 0.000000 0.000000 -20.936015 17.765491 -29.150415 15.655878 -4.209347 2.432689 -0.979548 3.306798 0.434999 0.000000 0.000000 0.000000 -22.149294 19.122444 -27.205319 16.809540 -3.703350 1.436460 -2.382571 2.070531 0.191390 0.000000 0.000000 0.000000
3.680407 78.675357 322.248774 12.483866 -2.649397 27.380379 0.460578 0.638395 -26.504058 -7.184035 1.460155 -0.057482 -5.390294 0.559130 -0.534473 0.000000 0.000000 0.000000 -5.390294 0.559130 -0.534473 -0.000000 0.000000 0.000000 10.166730 -5.714092 4.978794 -19.949007 3.912412 -4.387513 0.000000 0.000000 0.000000 0.000000 0.000000 0.000000 -4.444435 0.227831 -0.756347 0.704024 0.577805 0.196826 1.898381 -3.628861 1.500054 -1.361250 5.772318 -1.756520 0.000000 0.000000 0.000000 0.000000 0.000000 0.000000 -24.206631 18.373276 -26.042303 17.687064 -4.765933 2.883486 -0.479501 2.164879 0.492462 0.000000 0.000000 0.000000 -25.400149 20.713448 -23.447172 18.997223 -4.880951 1.750966 -2.804456 2.367991 0.268791 0.000000 0.000000 0.000000
4.167772 78.270446 322.516345 12.445483 -2.869396 24.539749 1.093477 0.450771 -23.632564 -6.959491 1.394326 -0.007539 -6.264814 0.781390 -0.606209 0.000000 0.000000 0.000000 -6.264814 0.781390 -0.606209 -0.000000 0.000000 0.000000 9.796237 -8.360106 4.513269 -18.392706 9.715887 -2.335662 0.000000 0.000000 0.000000 0.000000 0.000000 0.000000 -5.182616 0.366787 -0.861811 0.708251 1.095282 0.143228 1.520006 -5.265022 1.595852 -1.115194 9.100203 -2.282846 0.000000 0.000000 0.000000 0.000000 0.000000 0.000000 -25.372534 17.414278 -23.417348 18.251043 -5.209990 2.996834 -0.014967 1.345983 -0.395187 0.000000 0.000000 0.000000 -26.779021 20.854507 -20.304952 19.914918 -5.835785 1.931719 -3.043220 2.400908 0.382609 0.000000 0.000000 0.000000
3.735403 77.416110 322.325566 11.531944 -2.515286 21.563969 1.565237 0.065113 -20.710230 -6.073162 1.138979 0.054290 -6.863748 0.910420 -0.655389 0.000000 0.000000 0.000000 -6.863748 0.910420 -0.655389 -0.000000 0.000000 0.000000 8.603695 -10.897565 3.554572 -17.030432 14.127769 -0.327893 0.000000 0.000000 0.000000 0.000000 0.000000 0.000000 -5.631037 0.428953 -0.948322 0.567866 1.345559 0.140594 1.132590 -5.835060 1.517079 -0.449104 8.858737 -2.047113 0.000000 0.000000 0.000000 0.000000 0.000000 0.000000 -24.542943 14.306482 -21.755003 17.143151 -4.301020 3.279476 0.048975 1.105200 -0.475918 0.000000 0.000000 0.000000 -26.609935 19.143647 -17.839283 19.710560 -6.155774 1.930040 -3.253132 2.299883 0.548879 0.000000 0.000000 0.000000
2.819206 76.262271 322.011640 10.370519 -2.105111 19.870759 1.730952 -0.036393 -19.117619 -4.885542 0.789825 0.117055 -7.104054 0.914399 -0.678861 0.000000 0.000000 0.000000 -7.104054 0.914399 -0.678861 -0.000000 0.000000 0.000000 5.446239 -13.043865 1.387865 -12.607368 19.059988 2.200730 0.000000 0.000000 0.000000 0.000000 0.000000 0.000000 -5.672723 0.359732 -1.018593 0.423537 1.690734 0.132754 0.591219 -5.620603 1.344734 0.392150 8.188010 -1.829799 0.000000 0.000000 0.000000 0.000000 0.000000 0.000000 -21.945409 11.140599 -21.221789 14.723830 -2.983901 3.345200 0.102929 0.619806 -0.366479 0.000000 0.000000 0.000000 -25.207691 17.296888 -16.832444 18.817404 -6.031208 1.807176 -3.125259 2.098352 0.582345 0.000000 0.000000 0.000000
2.293894 75.265597 321.690190 9.663030 -1.680952 19.641189 1.862516 -0.222221 -18.946610 -4.377755 0.577441 0.143540 -7.097303 0.829804 -0.685452 0.000000 0.000000 0.000000 -7.097303 0.829804 -0.685452 -0.000000 0.000000 0.000000 7.105179 -11.142858 2.620086 -15.442837 14.407890 0.395039 0.000000 0.000000 0.000000 0.000000 0.000000 0.000000 -5.435418 0.217757 -1.078465 0.286054 1.971417 0.143239 0.030807 -6.413318 1.239066 0.970593 9.088272 -1.826449 0.000000 0.000000 0.000000 0.000000 0.000000 0.000000 -20.159826 9.104261 -21.836148 12.941791 -1.336386 3.667849 0.154302 -0.074978 -0.297611 0.000000 0.000000 0.000000 -24.430533 16.066284 -17.060263 18.433264 -5.555630 1.728027 -2.814812 2.002012 0.462875 0.000000 0.000000 0.000000
2.154957 74.681467 321.696042 9.477730 -1.649697 18.879812 1.790233 -0.068027 -18.215787 -3.924535 0.456706 0.174556 -7.253859 0.818277 -0.702086 0.000000 0.000000 0.000000 -7.253859 0.818277 -0.702086 -0.000000 0.000000 0.000000 9.790093 -10.899660 4.271572 -19.303597 11.511435 -1.314725 0.000000 0.000000 0.000000 0.000000 0.000000 0.000000 -5.385478 0.207241 -1.147830 0.199552 2.222281 0.145954 -1.233669 -5.991640 0.779776 1.881708 8.229601 -1.380731 0.000000 0.000000 0.000000 0.000000 0.000000 0.000000 -19.380179 7.992945 -21.444118 11.781430 0.061728 3.961814 0.262271 -0.888659 -0.301642 0.000000 0.000000 0.000000 -24.488217 15.800837 -16.352542 18.505844 -5.670884 1.744375 -2.560994 1.959473 0.346486 0.000000 0.000000 0.000000
2.642551 74.651225 321.905413 10.148705 -1.873128 19.218154 1.269224 0.321056 -18.540955 -3.740017 0.442410 0.194376 -7.485431 0.854725 -0.721983 0.000000 0.000000 0.000000 -7.485431 0.854725 -0.721983 -0.000000 0.000000 0.000000 11.778869 -10.323675 5.517886 -22.162944 8.937117 -2.817387 0.000000 0.000000 0.000000 0.000000 0.000000 0.000000 -5.353675 0.234400 -1.236042 -0.005938 2.474601 0.163447 -2.299650 -4.997231 0.349692 2.929789 6.089095 -0.723742 0.000000 0.000000 0.000000 0.000000 0.000000 0.000000 -19.995054 8.873135 -21.312078 12.046295 -0.285138 3.764310 0.447705 -1.610623 -0.352168 0.000000 0.000000 0.000000 -25.689768 16.614530 -16.339644 19.214974 -5.741172 1.837219 -1.998473 1.869133 0.086028 0.000000 0.000000 0.000000
3.076695 74.906004 322.140748 10.584708 -2.079352 20.686862 1.184757 0.379645 -19.972549 -3.728480 0.523422 0.207048 -7.811545 0.938097 -0.746818 0.000000 0.000000 0.000000 -7.811545 0.938097 -0.746818 -0.000000 0.000000 0.000000 14.138559 -12.162050 6.804117 -24.329070 10.169920 -3.002036 0.000000 0.000000 0.000000 0.000000 0.000000 0.000000 -5.603329 0.376407 -1.288048 0.057877 2.718751 0.126819 -3.577020 -2.591650 -0.179911 4.918491 2.183417 0.319854 0.000000 0.000000 0.000000 0.000000 0.000000 0.000000 -20.551203 10.485122 -22.100563 12.228190 -0.077788 3.666464 0.321940 -0.938495 0.111217 0.000000 0.000000 0.000000 -26.223190 17.618509 -17.481852 19.741282 -5.619565 1.893671 -1.488924 1.819716 -0.167599 0.000000 0.000000 0.000000
